<?xml version="1.0" encoding="utf-8"?>
<!-- Generator: Adobe Illustrator 16.0.0, SVG Export Plug-In . SVG Version: 6.00 Build 0)  -->
<!DOCTYPE svg PUBLIC "-//W3C//DTD SVG 1.1//EN" "http://www.w3.org/Graphics/SVG/1.1/DTD/svg11.dtd">
<svg version="1.1" xmlns="http://www.w3.org/2000/svg" xmlns:xlink="http://www.w3.org/1999/xlink" x="0px" y="0px"
	 width="1241.213px" height="800px" viewBox="0 0 1241.213 800" enable-background="new 0 0 1241.213 800" xml:space="preserve">
<g id="fondo">
	<path fill="#3A2984" d="M1241,580.709C1241,689.985,1153.033,779,1044.52,779H196.48C87.967,779,0,689.985,0,580.709V195.862
		C0,86.586,87.967-2,196.48-2h848.04C1153.033-2,1241,86.586,1241,195.862V580.709z"/>
	<g>
		<path fill="#FFFFFF" d="M973,316.443C973,279.06,942.826,249,905.704,249H331.28c-37.123,0-67.28,30.06-67.28,67.443v151.772
			C264,505.602,294.158,536,331.28,536h574.424C942.826,536,973,505.602,973,468.216V316.443z"/>
		<path fill="#FFFFFF" d="M1205,201.88C1205,112.733,1133.092,40,1044.568,40H201.452C112.929,40,41,112.733,41,201.88v379.89
			C41,670.915,112.929,743,201.452,743h843.116C1133.092,743,1205,670.915,1205,581.77V201.88z M1096,529.127
			C1096,595.266,1042.564,649,976.884,649H263.348C197.669,649,145,595.266,145,529.127V253.162
			C145,187.023,197.669,133,263.348,133h713.536C1042.564,133,1096,187.023,1096,253.162V529.127z"/>
	</g>
</g>
<g id="microfono">
	<path fill="#C13928" d="M164,520h-19l0.25,39C72.5,560.75,74,573,74,573c18,24,166,14,161,0s-70.875-14-70.875-14"/>
	<path fill="#C13928" d="M145.144,521c0,0-62.144-3.118-75.144-75.355V385h167v61.165c0,0-1.777,65.48-72.373,74.835H145.144z"/>
	<rect x="65" y="354" fill="#C13928" width="180" height="36"/>
	<path fill="#C13928" d="M94,354v-39c0,0-6.667-50,49-67h23c0,0,46.333,7.334,49,56.667V354H94z"/>
	<g id="microfono_blanco">
		<path fill="#FFFFFF" d="M103,384h103v-80c0,0-9-44-45-45h-12c0,0-38.333,2.164-46,45.5V384z"/>
		<path fill="#FFFFFF" d="M216,390h12v58c0,0-9,59.5-65,61.5V496c0,0,40.82-2.481,52.833-47.999L216,390z"/>
		<path fill="#FFFFFF" d="M93.237,390H81v58c0,0,9.25,59.5,65,61.5V496c0,0-40.638-2.481-52.598-47.999L93.237,390z"/>
		<path fill="#FFFFFF" d="M192.25,394.75c0,0,9.75,13.625,9.25,28.125l0.019,13.438c0,0,0.981,10.125-9.269,33.219
			c0,0,13.75-15.656,13.75-33.281c0-14.5,0-41.25,0-41.25"/>
		<path fill="#FFFFFF" d="M117.875,394.75c0,0-9.41,13.625-8.919,28.125l0.07,13.438c0,0-1.401,9.438,8.804,33.219
			c0,0-13.518-11.531-13.831-33.281c-0.208-14.498,0-41.25,0-41.25"/>
	</g>
</g>
<g id="Capa_8">
	<g>
		<path fill="#3A2984" d="M664,795.5c0,0,49,4.5,61,2.5s38,0,79-17h51V573l-215,3.5L664,795.5z"/>
		<path fill="#FFFFFF" d="M660.25,605.25c0,0,10.125,3.375,31.125,3.375s40.063-7.063,49.563-10.563s22.281-11.531,76.281-11.531
			c0,0,21.781-0.031,31.781,5.469v151h-26c0,0-6.5-1.25-22,2.75c0,0-41.75,21.375-97,19.625c0,0-21.75-0.313-28.5-2.063
			S660.25,605.25,660.25,605.25z"/>
	</g>
	<g>
		<path fill="#3A2984" d="M1046.889,795.5c0,0-49.228,4.5-61.283,2.5c-12.057-2-38.178,0-79.369-17H855V573l216,3.5L1046.889,795.5z
			"/>
		<path fill="#FFFFFF" d="M1050.655,605.25c0,0-10.171,3.375-31.27,3.375c-21.098,0-40.249-7.063-49.793-10.563
			s-22.398-11.531-76.648-11.531c0,0-21.944-0.031-31.944,5.469v151h26.148c0,0,6.531-1.25,22.103,2.75
			c0,0,41.944,21.375,97.451,19.625c0,0,21.851-0.313,28.633-2.063C1042.116,761.563,1050.655,605.25,1050.655,605.25z"/>
	</g>
</g>
<g id="Capa_7_copia">
	<g>
		<path fill="#DF3521" d="M380.541,422.1l62.181-34.246c-3.469-3.628-6.415-6.045-8.836-7.256
			c-5.549-2.937-12.305-4.408-20.276-4.408c-12.305,0-22.271,4.68-29.892,14.04c-6.76,8.669-10.136,19.069-10.136,31.2
			c0,10.575,3.725,20.064,11.176,28.471c7.451,8.409,17.42,12.609,29.9,12.609c12.821,0,22.441-3.465,28.852-10.4
			c5.891-5.891,10.14-15.51,12.74-28.859l22.892,3.12c0,13.349-5.46,25.915-16.38,37.7c-13,13.869-29.555,20.8-49.66,20.8
			c-16.814,0-31.59-6.11-44.33-18.33c-12.74-12.22-19.11-26.995-19.11-44.33c0-21.665,7.105-38.825,21.32-51.48
			c12.306-10.92,26.52-16.38,42.64-16.38c14.385,0,26.39,3.209,36.01,9.62c9.62,6.415,17.981,16.38,25.09,29.9l-84.24,46.804
			L380.541,422.1z"/>
		<path fill="#DF3521" d="M498.12,356.95h21.839v14.56c3.291-5.371,7.28-9.36,11.96-11.96c6.065-3.465,12.911-5.2,20.54-5.2h7.021
			v21.84h-5.46c-11.615,0-20.455,4.94-26.521,14.82c-4.334,7.109-6.5,15.516-6.5,25.221v65.52H498.12V356.95z"/>
		<path fill="#DF3521" d="M569.098,299.49h22.88v117.26c0,13,3.77,23.879,11.31,32.63c7.54,8.755,17.29,13.13,29.25,13.13
			c13.171,0,23.572-4.851,31.201-14.56c6.586-8.491,9.879-18.2,9.879-29.12c0-14.211-4.334-25.131-13-32.76
			c-7.629-6.585-16.639-9.88-27.04-9.88c-6.589,0-12.654,1.04-18.199,3.12c-3.47,1.215-8.235,3.729-14.301,7.54v-23.92
			c5.025-3.12,10.311-5.33,15.86-6.63c5.545-1.3,10.57-1.95,15.08-1.95c17.679,0,32.671,5.46,44.98,16.38
			c13,11.79,19.5,26.955,19.5,45.5c0,18.72-5.461,34.494-16.381,47.319c-11.789,13.87-27.648,20.8-47.58,20.8
			c-18.374,0-33.54-6.41-45.5-19.24c-11.96-12.824-17.939-28.08-17.939-45.76V299.49z"/>
		<path fill="#DF3521" d="M709.756,417.79c0-18.025,6.76-33.28,20.279-45.76c12.826-11.785,27.561-17.68,44.201-17.68
			c16.639,0,31.369,5.375,44.199,16.12c14.211,12.134,21.32,28.08,21.32,47.84c0,16.469-5.01,31.029-15.02,43.68
			c-11.74,14.909-26.934,22.359-45.578,22.359c-20.547,0-37.248-6.369-50.109-19.109c-12.863-12.74-19.293-28.211-19.293-46.41
			V417.79z M733.676,417.27c0,12.135,2.938,22.189,8.811,30.16c7.428,10.055,18.484,15.08,33.176,15.08
			c12.094,0,21.51-3.465,28.25-10.4c7.602-7.971,11.402-19.93,11.402-35.879c0-11.785-3.846-21.406-11.533-28.86
			c-7.689-7.451-17.406-11.18-29.156-11.18c-13.305,0-23.672,4.509-31.102,13.52C736.957,397.685,733.676,406.87,733.676,417.27z"/>
		<path fill="#DF3521" d="M865.234,299.49h22.879v182.26h-22.879V299.49z"/>
	</g>
</g>
<g id="Capa_9">
</g>
</svg>
