<?xml version="1.0" encoding="UTF-8"?>
<svg width="168px" height="61px" viewBox="0 0 168 61" version="1.1" xmlns="http://www.w3.org/2000/svg" xmlns:xlink="http://www.w3.org/1999/xlink">
    <title>logo_icct</title>
    <g id="Symbols" stroke="none" stroke-width="1" fill="none" fill-rule="evenodd">
        <g id="logo_icct" fill-rule="nonzero">
            <g id="ISI_logo">
                <path d="M61,54.962963 C61,58.2962963 58.2962963,61 54.962963,61 L6.03703704,61 C2.7037037,61 0,58.2962963 0,54.962963 L0,6.03703704 C0,2.7037037 2.7037037,0 6.03703704,0 L54.962963,0 C58.2962963,0 61,2.7037037 61,6.03703704 L61,54.962963 Z" id="Path" fill="#0000AF"></path>
                <rect id="Rectangle" fill="#FFFFFF" x="47" y="5.62962963" width="8.59259259" height="8.59259259"></rect>
                <rect id="Rectangle" fill="#FFFFFF" x="6.03703704" y="5.62962963" width="8.59259259" height="8.59259259"></rect>
                <rect id="Rectangle" fill="#FFFFFF" x="6.03703704" y="18.5185185" width="8.59259259" height="34.3703704"></rect>
                <polygon id="Path" fill="#FFFFFF" points="19 18.5185185 42.6666667 18.5185185 42.6666667 27.1111111 27.5925926 27.1111111 27.5925926 31.5555556 42.6666667 31.5555556 42.6666667 52.9259259 19 52.9259259 19 44.3333333 34.0740741 44.3333333 34.0740741 40.1481481 19 40.1481481"></polygon>
                <rect id="Rectangle" fill="#FFFFFF" x="47" y="18.5185185" width="8.59259259" height="34.3703704"></rect>
                <line x1="47" y1="52.9259259" x2="47" y2="27.1111111" id="Path" fill="#FFFFFF"></line>
                <line x1="14.6296296" y1="44.3333333" x2="14.6296296" y2="18.5185185" id="Path" fill="#FFFFFF"></line>
            </g>
            <g id="International-Statis" transform="translate(71.561000, 2.862000)" fill="#0000AF">
                <polygon id="Path" points="0.731 0 2.856 0 2.856 12.138 0.731 12.138"></polygon>
                <path d="M5.185,3.349 L7.021,3.349 L7.021,4.641 L7.055,4.675 C7.34966667,4.18766667 7.735,3.80516667 8.211,3.5275 C8.687,3.24983333 9.214,3.111 9.792,3.111 C10.7553333,3.111 11.5146667,3.36033333 12.07,3.859 C12.6253333,4.35766667 12.903,5.10566667 12.903,6.103 L12.903,12.138 L10.965,12.138 L10.965,6.613 C10.9423333,5.92166667 10.795,5.42016667 10.523,5.1085 C10.251,4.79683333 9.826,4.641 9.248,4.641 C8.91933333,4.641 8.62466667,4.7005 8.364,4.8195 C8.10333333,4.9385 7.88233333,5.10283333 7.701,5.3125 C7.51966667,5.52216667 7.378,5.76866667 7.276,6.052 C7.174,6.33533333 7.123,6.63566667 7.123,6.953 L7.123,12.138 L5.185,12.138 L5.185,3.349 Z" id="Path"></path>
                <path d="M14.059,3.349 L15.521,3.349 L15.521,0.714 L17.459,0.714 L17.459,3.349 L19.21,3.349 L19.21,4.794 L17.459,4.794 L17.459,9.486 C17.459,9.69 17.4675,9.86566667 17.4845,10.013 C17.5015,10.1603333 17.5411667,10.285 17.6035,10.387 C17.6658333,10.489 17.7593333,10.5655 17.884,10.6165 C18.0086667,10.6675 18.1786667,10.693 18.394,10.693 C18.53,10.693 18.666,10.6901667 18.802,10.6845 C18.938,10.6788333 19.074,10.659 19.21,10.625 L19.21,12.121 C18.9946667,12.1436667 18.785,12.1663333 18.581,12.189 C18.377,12.2116667 18.1673333,12.223 17.952,12.223 C17.442,12.223 17.0311667,12.1748333 16.7195,12.0785 C16.4078333,11.9821667 16.1641667,11.8405 15.9885,11.6535 C15.8128333,11.4665 15.6938333,11.2313333 15.6315,10.948 C15.5691667,10.6646667 15.5323333,10.3416667 15.521,9.979 L15.521,4.794 L14.059,4.794 L14.059,3.349 Z" id="Path"></path>
                <path d="M26.639,6.97 C26.6163333,6.664 26.5511667,6.36933333 26.4435,6.086 C26.3358333,5.80266667 26.1885,5.55616667 26.0015,5.3465 C25.8145,5.13683333 25.5878333,4.96683333 25.3215,4.8365 C25.0551667,4.70616667 24.7576667,4.641 24.429,4.641 C24.089,4.641 23.7801667,4.7005 23.5025,4.8195 C23.2248333,4.9385 22.9868333,5.10283333 22.7885,5.3125 C22.5901667,5.52216667 22.4315,5.76866667 22.3125,6.052 C22.1935,6.33533333 22.1283333,6.64133333 22.117,6.97 L26.639,6.97 Z M22.117,8.245 C22.117,8.585 22.1651667,8.91366667 22.2615,9.231 C22.3578333,9.54833333 22.5023333,9.826 22.695,10.064 C22.8876667,10.302 23.1313333,10.4918333 23.426,10.6335 C23.7206667,10.7751667 24.072,10.846 24.48,10.846 C25.0466667,10.846 25.5028333,10.7241667 25.8485,10.4805 C26.1941667,10.2368333 26.452,9.87133333 26.622,9.384 L28.458,9.384 C28.356,9.86 28.1803333,10.285 27.931,10.659 C27.6816667,11.033 27.3813333,11.3475 27.03,11.6025 C26.6786667,11.8575 26.2848333,12.0501667 25.8485,12.1805 C25.4121667,12.3108333 24.956,12.376 24.48,12.376 C23.7886667,12.376 23.1766667,12.2626667 22.644,12.036 C22.1113333,11.8093333 21.6608333,11.492 21.2925,11.084 C20.9241667,10.676 20.6465,10.1886667 20.4595,9.622 C20.2725,9.05533333 20.179,8.432 20.179,7.752 C20.179,7.12866667 20.2781667,6.5365 20.4765,5.9755 C20.6748333,5.4145 20.9581667,4.9215 21.3265,4.4965 C21.6948333,4.0715 22.1396667,3.73433333 22.661,3.485 C23.1823333,3.23566667 23.7716667,3.111 24.429,3.111 C25.1203333,3.111 25.7408333,3.2555 26.2905,3.5445 C26.8401667,3.8335 27.2963333,4.216 27.659,4.692 C28.0216667,5.168 28.2851667,5.71483333 28.4495,6.3325 C28.6138333,6.95016667 28.6563333,7.58766667 28.577,8.245 L22.117,8.245 Z" id="Shape"></path>
                <path d="M30.056,3.349 L31.875,3.349 L31.875,5.049 L31.909,5.049 C31.9656667,4.811 32.0761667,4.57866667 32.2405,4.352 C32.4048333,4.12533333 32.6031667,3.9185 32.8355,3.7315 C33.0678333,3.5445 33.3256667,3.39433333 33.609,3.281 C33.8923333,3.16766667 34.1813333,3.111 34.476,3.111 C34.7026667,3.111 34.8585,3.11666667 34.9435,3.128 C35.0285,3.13933333 35.1163333,3.15066667 35.207,3.162 L35.207,5.032 C35.071,5.00933333 34.9321667,4.9895 34.7905,4.9725 C34.6488333,4.9555 34.51,4.947 34.374,4.947 C34.0453333,4.947 33.7365,5.01216667 33.4475,5.1425 C33.1585,5.27283333 32.9063333,5.4655 32.691,5.7205 C32.4756667,5.9755 32.3056667,6.29 32.181,6.664 C32.0563333,7.038 31.994,7.46866667 31.994,7.956 L31.994,12.138 L30.056,12.138 L30.056,3.349 Z" id="Path"></path>
                <path d="M36.04,3.349 L37.876,3.349 L37.876,4.641 L37.91,4.675 C38.2046667,4.18766667 38.59,3.80516667 39.066,3.5275 C39.542,3.24983333 40.069,3.111 40.647,3.111 C41.6103333,3.111 42.3696667,3.36033333 42.925,3.859 C43.4803333,4.35766667 43.758,5.10566667 43.758,6.103 L43.758,12.138 L41.82,12.138 L41.82,6.613 C41.7973333,5.92166667 41.65,5.42016667 41.378,5.1085 C41.106,4.79683333 40.681,4.641 40.103,4.641 C39.7743333,4.641 39.4796667,4.7005 39.219,4.8195 C38.9583333,4.9385 38.7373333,5.10283333 38.556,5.3125 C38.3746667,5.52216667 38.233,5.76866667 38.131,6.052 C38.029,6.33533333 37.978,6.63566667 37.978,6.953 L37.978,12.138 L36.04,12.138 L36.04,3.349 Z" id="Path"></path>
                <path d="M53.159,10.183 C53.159,10.421 53.1901667,10.591 53.2525,10.693 C53.3148333,10.795 53.4366667,10.846 53.618,10.846 C53.6746667,10.846 53.7426667,10.846 53.822,10.846 C53.9013333,10.846 53.992,10.8346667 54.094,10.812 L54.094,12.155 C54.026,12.1776667 53.9381667,12.2031667 53.8305,12.2315 C53.7228333,12.2598333 53.6123333,12.2853333 53.499,12.308 C53.3856667,12.3306667 53.2723333,12.3476667 53.159,12.359 C53.0456667,12.3703333 52.9493333,12.376 52.87,12.376 C52.4733333,12.376 52.1446667,12.2966667 51.884,12.138 C51.6233333,11.9793333 51.4533333,11.7016667 51.374,11.305 C50.9886667,11.679 50.5155,11.951 49.9545,12.121 C49.3935,12.291 48.8523333,12.376 48.331,12.376 C47.9343333,12.376 47.5546667,12.3221667 47.192,12.2145 C46.8293333,12.1068333 46.5091667,11.9481667 46.2315,11.7385 C45.9538333,11.5288333 45.7328333,11.2625 45.5685,10.9395 C45.4041667,10.6165 45.322,10.2396667 45.322,9.809 C45.322,9.265 45.4211667,8.823 45.6195,8.483 C45.8178333,8.143 46.0785,7.87666667 46.4015,7.684 C46.7245,7.49133333 47.0871667,7.3525 47.4895,7.2675 C47.8918333,7.1825 48.297,7.11733333 48.705,7.072 C49.0563333,7.004 49.3906667,6.95583333 49.708,6.9275 C50.0253333,6.89916667 50.3058333,6.851 50.5495,6.783 C50.7931667,6.715 50.9858333,6.61016667 51.1275,6.4685 C51.2691667,6.32683333 51.34,6.11433333 51.34,5.831 C51.34,5.58166667 51.2805,5.37766667 51.1615,5.219 C51.0425,5.06033333 50.8951667,4.9385 50.7195,4.8535 C50.5438333,4.7685 50.3483333,4.71183333 50.133,4.6835 C49.9176667,4.65516667 49.7136667,4.641 49.521,4.641 C48.977,4.641 48.5293333,4.75433333 48.178,4.981 C47.8266667,5.20766667 47.6283333,5.559 47.583,6.035 L45.645,6.035 C45.679,5.46833333 45.815,4.998 46.053,4.624 C46.291,4.25 46.5941667,3.94966667 46.9625,3.723 C47.3308333,3.49633333 47.7473333,3.33766667 48.212,3.247 C48.6766667,3.15633333 49.1526667,3.111 49.64,3.111 C50.0706667,3.111 50.4956667,3.15633333 50.915,3.247 C51.3343333,3.33766667 51.7111667,3.485 52.0455,3.689 C52.3798333,3.893 52.649,4.1565 52.853,4.4795 C53.057,4.8025 53.159,5.19633333 53.159,5.661 L53.159,10.183 Z M51.221,7.735 C50.9263333,7.92766667 50.5636667,8.04383333 50.133,8.0835 C49.7023333,8.12316667 49.2716667,8.18266667 48.841,8.262 C48.637,8.296 48.4386667,8.34416667 48.246,8.4065 C48.0533333,8.46883333 47.8833333,8.55383333 47.736,8.6615 C47.5886667,8.76916667 47.4725,8.91083333 47.3875,9.0865 C47.3025,9.26216667 47.26,9.47466667 47.26,9.724 C47.26,9.93933333 47.3223333,10.1206667 47.447,10.268 C47.5716667,10.4153333 47.7218333,10.5315 47.8975,10.6165 C48.0731667,10.7015 48.2658333,10.761 48.4755,10.795 C48.6851667,10.829 48.875,10.846 49.045,10.846 C49.2603333,10.846 49.4926667,10.8176667 49.742,10.761 C49.9913333,10.7043333 50.2265,10.608 50.4475,10.472 C50.6685,10.336 50.8526667,10.1631667 51,9.9535 C51.1473333,9.74383333 51.221,9.486 51.221,9.18 L51.221,7.735 Z" id="Shape"></path>
                <path d="M54.366,3.349 L55.828,3.349 L55.828,0.714 L57.766,0.714 L57.766,3.349 L59.517,3.349 L59.517,4.794 L57.766,4.794 L57.766,9.486 C57.766,9.69 57.7745,9.86566667 57.7915,10.013 C57.8085,10.1603333 57.8481667,10.285 57.9105,10.387 C57.9728333,10.489 58.0663333,10.5655 58.191,10.6165 C58.3156667,10.6675 58.4856667,10.693 58.701,10.693 C58.837,10.693 58.973,10.6901667 59.109,10.6845 C59.245,10.6788333 59.381,10.659 59.517,10.625 L59.517,12.121 C59.3016667,12.1436667 59.092,12.1663333 58.888,12.189 C58.684,12.2116667 58.4743333,12.223 58.259,12.223 C57.749,12.223 57.3381667,12.1748333 57.0265,12.0785 C56.7148333,11.9821667 56.4711667,11.8405 56.2955,11.6535 C56.1198333,11.4665 56.0008333,11.2313333 55.9385,10.948 C55.8761667,10.6646667 55.8393333,10.3416667 55.828,9.979 L55.828,4.794 L54.366,4.794 L54.366,3.349 Z" id="Path"></path>
                <path d="M60.962,0 L62.9,0 L62.9,1.836 L60.962,1.836 L60.962,0 Z M60.962,3.349 L62.9,3.349 L62.9,12.138 L60.962,12.138 L60.962,3.349 Z" id="Shape"></path>
                <path d="M69.037,12.376 C68.3343333,12.376 67.7081667,12.2598333 67.1585,12.0275 C66.6088333,11.7951667 66.1441667,11.475 65.7645,11.067 C65.3848333,10.659 65.0958333,10.1716667 64.8975,9.605 C64.6991667,9.03833333 64.6,8.415 64.6,7.735 C64.6,7.06633333 64.6991667,6.44866667 64.8975,5.882 C65.0958333,5.31533333 65.3848333,4.828 65.7645,4.42 C66.1441667,4.012 66.6088333,3.69183333 67.1585,3.4595 C67.7081667,3.22716667 68.3343333,3.111 69.037,3.111 C69.7396667,3.111 70.3658333,3.22716667 70.9155,3.4595 C71.4651667,3.69183333 71.9298333,4.012 72.3095,4.42 C72.6891667,4.828 72.9781667,5.31533333 73.1765,5.882 C73.3748333,6.44866667 73.474,7.06633333 73.474,7.735 C73.474,8.415 73.3748333,9.03833333 73.1765,9.605 C72.9781667,10.1716667 72.6891667,10.659 72.3095,11.067 C71.9298333,11.475 71.4651667,11.7951667 70.9155,12.0275 C70.3658333,12.2598333 69.7396667,12.376 69.037,12.376 Z M69.037,10.846 C69.4676667,10.846 69.8416667,10.7553333 70.159,10.574 C70.4763333,10.3926667 70.737,10.1546667 70.941,9.86 C71.145,9.56533333 71.2951667,9.23383333 71.3915,8.8655 C71.4878333,8.49716667 71.536,8.12033333 71.536,7.735 C71.536,7.361 71.4878333,6.987 71.3915,6.613 C71.2951667,6.239 71.145,5.9075 70.941,5.6185 C70.737,5.3295 70.4763333,5.09433333 70.159,4.913 C69.8416667,4.73166667 69.4676667,4.641 69.037,4.641 C68.6063333,4.641 68.2323333,4.73166667 67.915,4.913 C67.5976667,5.09433333 67.337,5.3295 67.133,5.6185 C66.929,5.9075 66.7788333,6.239 66.6825,6.613 C66.5861667,6.987 66.538,7.361 66.538,7.735 C66.538,8.12033333 66.5861667,8.49716667 66.6825,8.8655 C66.7788333,9.23383333 66.929,9.56533333 67.133,9.86 C67.337,10.1546667 67.5976667,10.3926667 67.915,10.574 C68.2323333,10.7553333 68.6063333,10.846 69.037,10.846 Z" id="Shape"></path>
                <path d="M75.089,3.349 L76.925,3.349 L76.925,4.641 L76.959,4.675 C77.2536667,4.18766667 77.639,3.80516667 78.115,3.5275 C78.591,3.24983333 79.118,3.111 79.696,3.111 C80.6593333,3.111 81.4186667,3.36033333 81.974,3.859 C82.5293333,4.35766667 82.807,5.10566667 82.807,6.103 L82.807,12.138 L80.869,12.138 L80.869,6.613 C80.8463333,5.92166667 80.699,5.42016667 80.427,5.1085 C80.155,4.79683333 79.73,4.641 79.152,4.641 C78.8233333,4.641 78.5286667,4.7005 78.268,4.8195 C78.0073333,4.9385 77.7863333,5.10283333 77.605,5.3125 C77.4236667,5.52216667 77.282,5.76866667 77.18,6.052 C77.078,6.33533333 77.027,6.63566667 77.027,6.953 L77.027,12.138 L75.089,12.138 L75.089,3.349 Z" id="Path"></path>
                <path d="M92.208,10.183 C92.208,10.421 92.2391667,10.591 92.3015,10.693 C92.3638333,10.795 92.4856667,10.846 92.667,10.846 C92.7236667,10.846 92.7916667,10.846 92.871,10.846 C92.9503333,10.846 93.041,10.8346667 93.143,10.812 L93.143,12.155 C93.075,12.1776667 92.9871667,12.2031667 92.8795,12.2315 C92.7718333,12.2598333 92.6613333,12.2853333 92.548,12.308 C92.4346667,12.3306667 92.3213333,12.3476667 92.208,12.359 C92.0946667,12.3703333 91.9983333,12.376 91.919,12.376 C91.5223333,12.376 91.1936667,12.2966667 90.933,12.138 C90.6723333,11.9793333 90.5023333,11.7016667 90.423,11.305 C90.0376667,11.679 89.5645,11.951 89.0035,12.121 C88.4425,12.291 87.9013333,12.376 87.38,12.376 C86.9833333,12.376 86.6036667,12.3221667 86.241,12.2145 C85.8783333,12.1068333 85.5581667,11.9481667 85.2805,11.7385 C85.0028333,11.5288333 84.7818333,11.2625 84.6175,10.9395 C84.4531667,10.6165 84.371,10.2396667 84.371,9.809 C84.371,9.265 84.4701667,8.823 84.6685,8.483 C84.8668333,8.143 85.1275,7.87666667 85.4505,7.684 C85.7735,7.49133333 86.1361667,7.3525 86.5385,7.2675 C86.9408333,7.1825 87.346,7.11733333 87.754,7.072 C88.1053333,7.004 88.4396667,6.95583333 88.757,6.9275 C89.0743333,6.89916667 89.3548333,6.851 89.5985,6.783 C89.8421667,6.715 90.0348333,6.61016667 90.1765,6.4685 C90.3181667,6.32683333 90.389,6.11433333 90.389,5.831 C90.389,5.58166667 90.3295,5.37766667 90.2105,5.219 C90.0915,5.06033333 89.9441667,4.9385 89.7685,4.8535 C89.5928333,4.7685 89.3973333,4.71183333 89.182,4.6835 C88.9666667,4.65516667 88.7626667,4.641 88.57,4.641 C88.026,4.641 87.5783333,4.75433333 87.227,4.981 C86.8756667,5.20766667 86.6773333,5.559 86.632,6.035 L84.694,6.035 C84.728,5.46833333 84.864,4.998 85.102,4.624 C85.34,4.25 85.6431667,3.94966667 86.0115,3.723 C86.3798333,3.49633333 86.7963333,3.33766667 87.261,3.247 C87.7256667,3.15633333 88.2016667,3.111 88.689,3.111 C89.1196667,3.111 89.5446667,3.15633333 89.964,3.247 C90.3833333,3.33766667 90.7601667,3.485 91.0945,3.689 C91.4288333,3.893 91.698,4.1565 91.902,4.4795 C92.106,4.8025 92.208,5.19633333 92.208,5.661 L92.208,10.183 Z M90.27,7.735 C89.9753333,7.92766667 89.6126667,8.04383333 89.182,8.0835 C88.7513333,8.12316667 88.3206667,8.18266667 87.89,8.262 C87.686,8.296 87.4876667,8.34416667 87.295,8.4065 C87.1023333,8.46883333 86.9323333,8.55383333 86.785,8.6615 C86.6376667,8.76916667 86.5215,8.91083333 86.4365,9.0865 C86.3515,9.26216667 86.309,9.47466667 86.309,9.724 C86.309,9.93933333 86.3713333,10.1206667 86.496,10.268 C86.6206667,10.4153333 86.7708333,10.5315 86.9465,10.6165 C87.1221667,10.7015 87.3148333,10.761 87.5245,10.795 C87.7341667,10.829 87.924,10.846 88.094,10.846 C88.3093333,10.846 88.5416667,10.8176667 88.791,10.761 C89.0403333,10.7043333 89.2755,10.608 89.4965,10.472 C89.7175,10.336 89.9016667,10.1631667 90.049,9.9535 C90.1963333,9.74383333 90.27,9.486 90.27,9.18 L90.27,7.735 Z" id="Shape"></path>
                <polygon id="Path" points="94.35 0 96.288 0 96.288 12.138 94.35 12.138"></polygon>
                <path d="M2.125,29.092 C2.125,29.5566667 2.20433333,29.9533333 2.363,30.282 C2.52166667,30.6106667 2.74266667,30.8798333 3.026,31.0895 C3.30933333,31.2991667 3.63516667,31.4521667 4.0035,31.5485 C4.37183333,31.6448333 4.77133333,31.693 5.202,31.693 C5.66666667,31.693 6.06333333,31.6391667 6.392,31.5315 C6.72066667,31.4238333 6.987,31.285 7.191,31.115 C7.395,30.945 7.54233333,30.7495 7.633,30.5285 C7.72366667,30.3075 7.769,30.0836667 7.769,29.857 C7.769,29.3923333 7.66416667,29.0495 7.4545,28.8285 C7.24483333,28.6075 7.01533333,28.4516667 6.766,28.361 C6.33533333,28.2023333 5.83383333,28.0521667 5.2615,27.9105 C4.68916667,27.7688333 3.98366667,27.5846667 3.145,27.358 C2.62366667,27.222 2.19016667,27.0435 1.8445,26.8225 C1.49883333,26.6015 1.224,26.355 1.02,26.083 C0.816,25.811 0.6715,25.522 0.5865,25.216 C0.5015,24.91 0.459,24.5983333 0.459,24.281 C0.459,23.669 0.5865,23.1391667 0.8415,22.6915 C1.0965,22.2438333 1.43366667,21.8726667 1.853,21.578 C2.27233333,21.2833333 2.74833333,21.0651667 3.281,20.9235 C3.81366667,20.7818333 4.352,20.711 4.896,20.711 C5.53066667,20.711 6.1285,20.7931667 6.6895,20.9575 C7.2505,21.1218333 7.7435,21.3683333 8.1685,21.697 C8.5935,22.0256667 8.93066667,22.4308333 9.18,22.9125 C9.42933333,23.3941667 9.554,23.9523333 9.554,24.587 L7.429,24.587 C7.37233333,23.805 7.106,23.2525 6.63,22.9295 C6.154,22.6065 5.54766667,22.445 4.811,22.445 C4.56166667,22.445 4.30666667,22.4705 4.046,22.5215 C3.78533333,22.5725 3.54733333,22.6575 3.332,22.7765 C3.11666667,22.8955 2.93816667,23.057 2.7965,23.261 C2.65483333,23.465 2.584,23.72 2.584,24.026 C2.584,24.4566667 2.71716667,24.7938333 2.9835,25.0375 C3.24983333,25.2811667 3.59833333,25.4653333 4.029,25.59 C4.07433333,25.6013333 4.25283333,25.6495 4.5645,25.7345 C4.87616667,25.8195 5.22466667,25.913 5.61,26.015 C5.99533333,26.117 6.37216667,26.2161667 6.7405,26.3125 C7.10883333,26.4088333 7.37233333,26.4796667 7.531,26.525 C7.92766667,26.6496667 8.27333333,26.8196667 8.568,27.035 C8.86266667,27.2503333 9.10916667,27.4968333 9.3075,27.7745 C9.50583333,28.0521667 9.65316667,28.3496667 9.7495,28.667 C9.84583333,28.9843333 9.894,29.3016667 9.894,29.619 C9.894,30.299 9.75516667,30.8798333 9.4775,31.3615 C9.19983333,31.8431667 8.83433333,32.237 8.381,32.543 C7.92766667,32.849 7.412,33.0728333 6.834,33.2145 C6.256,33.3561667 5.66666667,33.427 5.066,33.427 C4.37466667,33.427 3.723,33.342 3.111,33.172 C2.499,33.002 1.96633333,32.7413333 1.513,32.39 C1.05966667,32.0386667 0.697,31.5881667 0.425,31.0385 C0.153,30.4888333 0.0113333333,29.84 0,29.092 L2.125,29.092 Z" id="Path"></path>
                <path d="M10.591,24.349 L12.053,24.349 L12.053,21.714 L13.991,21.714 L13.991,24.349 L15.742,24.349 L15.742,25.794 L13.991,25.794 L13.991,30.486 C13.991,30.69 13.9995,30.8656667 14.0165,31.013 C14.0335,31.1603333 14.0731667,31.285 14.1355,31.387 C14.1978333,31.489 14.2913333,31.5655 14.416,31.6165 C14.5406667,31.6675 14.7106667,31.693 14.926,31.693 C15.062,31.693 15.198,31.6901667 15.334,31.6845 C15.47,31.6788333 15.606,31.659 15.742,31.625 L15.742,33.121 C15.5266667,33.1436667 15.317,33.1663333 15.113,33.189 C14.909,33.2116667 14.6993333,33.223 14.484,33.223 C13.974,33.223 13.5631667,33.1748333 13.2515,33.0785 C12.9398333,32.9821667 12.6961667,32.8405 12.5205,32.6535 C12.3448333,32.4665 12.2258333,32.2313333 12.1635,31.948 C12.1011667,31.6646667 12.0643333,31.3416667 12.053,30.979 L12.053,25.794 L10.591,25.794 L10.591,24.349 Z" id="Path"></path>
                <path d="M24.497,31.183 C24.497,31.421 24.5281667,31.591 24.5905,31.693 C24.6528333,31.795 24.7746667,31.846 24.956,31.846 C25.0126667,31.846 25.0806667,31.846 25.16,31.846 C25.2393333,31.846 25.33,31.8346667 25.432,31.812 L25.432,33.155 C25.364,33.1776667 25.2761667,33.2031667 25.1685,33.2315 C25.0608333,33.2598333 24.9503333,33.2853333 24.837,33.308 C24.7236667,33.3306667 24.6103333,33.3476667 24.497,33.359 C24.3836667,33.3703333 24.2873333,33.376 24.208,33.376 C23.8113333,33.376 23.4826667,33.2966667 23.222,33.138 C22.9613333,32.9793333 22.7913333,32.7016667 22.712,32.305 C22.3266667,32.679 21.8535,32.951 21.2925,33.121 C20.7315,33.291 20.1903333,33.376 19.669,33.376 C19.2723333,33.376 18.8926667,33.3221667 18.53,33.2145 C18.1673333,33.1068333 17.8471667,32.9481667 17.5695,32.7385 C17.2918333,32.5288333 17.0708333,32.2625 16.9065,31.9395 C16.7421667,31.6165 16.66,31.2396667 16.66,30.809 C16.66,30.265 16.7591667,29.823 16.9575,29.483 C17.1558333,29.143 17.4165,28.8766667 17.7395,28.684 C18.0625,28.4913333 18.4251667,28.3525 18.8275,28.2675 C19.2298333,28.1825 19.635,28.1173333 20.043,28.072 C20.3943333,28.004 20.7286667,27.9558333 21.046,27.9275 C21.3633333,27.8991667 21.6438333,27.851 21.8875,27.783 C22.1311667,27.715 22.3238333,27.6101667 22.4655,27.4685 C22.6071667,27.3268333 22.678,27.1143333 22.678,26.831 C22.678,26.5816667 22.6185,26.3776667 22.4995,26.219 C22.3805,26.0603333 22.2331667,25.9385 22.0575,25.8535 C21.8818333,25.7685 21.6863333,25.7118333 21.471,25.6835 C21.2556667,25.6551667 21.0516667,25.641 20.859,25.641 C20.315,25.641 19.8673333,25.7543333 19.516,25.981 C19.1646667,26.2076667 18.9663333,26.559 18.921,27.035 L16.983,27.035 C17.017,26.4683333 17.153,25.998 17.391,25.624 C17.629,25.25 17.9321667,24.9496667 18.3005,24.723 C18.6688333,24.4963333 19.0853333,24.3376667 19.55,24.247 C20.0146667,24.1563333 20.4906667,24.111 20.978,24.111 C21.4086667,24.111 21.8336667,24.1563333 22.253,24.247 C22.6723333,24.3376667 23.0491667,24.485 23.3835,24.689 C23.7178333,24.893 23.987,25.1565 24.191,25.4795 C24.395,25.8025 24.497,26.1963333 24.497,26.661 L24.497,31.183 Z M22.559,28.735 C22.2643333,28.9276667 21.9016667,29.0438333 21.471,29.0835 C21.0403333,29.1231667 20.6096667,29.1826667 20.179,29.262 C19.975,29.296 19.7766667,29.3441667 19.584,29.4065 C19.3913333,29.4688333 19.2213333,29.5538333 19.074,29.6615 C18.9266667,29.7691667 18.8105,29.9108333 18.7255,30.0865 C18.6405,30.2621667 18.598,30.4746667 18.598,30.724 C18.598,30.9393333 18.6603333,31.1206667 18.785,31.268 C18.9096667,31.4153333 19.0598333,31.5315 19.2355,31.6165 C19.4111667,31.7015 19.6038333,31.761 19.8135,31.795 C20.0231667,31.829 20.213,31.846 20.383,31.846 C20.5983333,31.846 20.8306667,31.8176667 21.08,31.761 C21.3293333,31.7043333 21.5645,31.608 21.7855,31.472 C22.0065,31.336 22.1906667,31.1631667 22.338,30.9535 C22.4853333,30.7438333 22.559,30.486 22.559,30.18 L22.559,28.735 Z" id="Shape"></path>
                <path d="M25.704,24.349 L27.166,24.349 L27.166,21.714 L29.104,21.714 L29.104,24.349 L30.855,24.349 L30.855,25.794 L29.104,25.794 L29.104,30.486 C29.104,30.69 29.1125,30.8656667 29.1295,31.013 C29.1465,31.1603333 29.1861667,31.285 29.2485,31.387 C29.3108333,31.489 29.4043333,31.5655 29.529,31.6165 C29.6536667,31.6675 29.8236667,31.693 30.039,31.693 C30.175,31.693 30.311,31.6901667 30.447,31.6845 C30.583,31.6788333 30.719,31.659 30.855,31.625 L30.855,33.121 C30.6396667,33.1436667 30.43,33.1663333 30.226,33.189 C30.022,33.2116667 29.8123333,33.223 29.597,33.223 C29.087,33.223 28.6761667,33.1748333 28.3645,33.0785 C28.0528333,32.9821667 27.8091667,32.8405 27.6335,32.6535 C27.4578333,32.4665 27.3388333,32.2313333 27.2765,31.948 C27.2141667,31.6646667 27.1773333,31.3416667 27.166,30.979 L27.166,25.794 L25.704,25.794 L25.704,24.349 Z" id="Path"></path>
                <path d="M32.3,21 L34.238,21 L34.238,22.836 L32.3,22.836 L32.3,21 Z M32.3,24.349 L34.238,24.349 L34.238,33.138 L32.3,33.138 L32.3,24.349 Z" id="Shape"></path>
                <path d="M37.808,30.316 C37.8646667,30.8826667 38.08,31.2793333 38.454,31.506 C38.828,31.7326667 39.2756667,31.846 39.797,31.846 C39.9783333,31.846 40.1851667,31.8318333 40.4175,31.8035 C40.6498333,31.7751667 40.868,31.7213333 41.072,31.642 C41.276,31.5626667 41.4431667,31.4465 41.5735,31.2935 C41.7038333,31.1405 41.7633333,30.9393333 41.752,30.69 C41.7406667,30.4406667 41.65,30.2366667 41.48,30.078 C41.31,29.9193333 41.0918333,29.7918333 40.8255,29.6955 C40.5591667,29.5991667 40.256,29.517 39.916,29.449 C39.576,29.381 39.2303333,29.3073333 38.879,29.228 C38.5163333,29.1486667 38.1678333,29.0523333 37.8335,28.939 C37.4991667,28.8256667 37.1988333,28.6726667 36.9325,28.48 C36.6661667,28.2873333 36.4536667,28.0408333 36.295,27.7405 C36.1363333,27.4401667 36.057,27.069 36.057,26.627 C36.057,26.151 36.1731667,25.7515 36.4055,25.4285 C36.6378333,25.1055 36.9325,24.8448333 37.2895,24.6465 C37.6465,24.4481667 38.0431667,24.3093333 38.4795,24.23 C38.9158333,24.1506667 39.3323333,24.111 39.729,24.111 C40.1823333,24.111 40.6158333,24.1591667 41.0295,24.2555 C41.4431667,24.3518333 41.8171667,24.5076667 42.1515,24.723 C42.4858333,24.9383333 42.7635,25.2188333 42.9845,25.5645 C43.2055,25.9101667 43.3443333,26.3266667 43.401,26.814 L41.378,26.814 C41.2873333,26.3493333 41.0748333,26.0376667 40.7405,25.879 C40.4061667,25.7203333 40.0236667,25.641 39.593,25.641 C39.457,25.641 39.2955,25.6523333 39.1085,25.675 C38.9215,25.6976667 38.7458333,25.7401667 38.5815,25.8025 C38.4171667,25.8648333 38.2783333,25.9555 38.165,26.0745 C38.0516667,26.1935 37.995,26.3493333 37.995,26.542 C37.995,26.78 38.0771667,26.9726667 38.2415,27.12 C38.4058333,27.2673333 38.6211667,27.3891667 38.8875,27.4855 C39.1538333,27.5818333 39.457,27.664 39.797,27.732 C40.137,27.8 40.4883333,27.8736667 40.851,27.953 C41.2023333,28.0323333 41.548,28.1286667 41.888,28.242 C42.228,28.3553333 42.5311667,28.5083333 42.7975,28.701 C43.0638333,28.8936667 43.2791667,29.1373333 43.4435,29.432 C43.6078333,29.7266667 43.69,30.0893333 43.69,30.52 C43.69,31.0413333 43.571,31.4833333 43.333,31.846 C43.095,32.2086667 42.7861667,32.5033333 42.4065,32.73 C42.0268333,32.9566667 41.6046667,33.121 41.14,33.223 C40.6753333,33.325 40.2163333,33.376 39.763,33.376 C39.2076667,33.376 38.6948333,33.3136667 38.2245,33.189 C37.7541667,33.0643333 37.3461667,32.8745 37.0005,32.6195 C36.6548333,32.3645 36.3828333,32.0471667 36.1845,31.6675 C35.9861667,31.2878333 35.8813333,30.8373333 35.87,30.316 L37.808,30.316 Z" id="Path"></path>
                <path d="M44.285,24.349 L45.747,24.349 L45.747,21.714 L47.685,21.714 L47.685,24.349 L49.436,24.349 L49.436,25.794 L47.685,25.794 L47.685,30.486 C47.685,30.69 47.6935,30.8656667 47.7105,31.013 C47.7275,31.1603333 47.7671667,31.285 47.8295,31.387 C47.8918333,31.489 47.9853333,31.5655 48.11,31.6165 C48.2346667,31.6675 48.4046667,31.693 48.62,31.693 C48.756,31.693 48.892,31.6901667 49.028,31.6845 C49.164,31.6788333 49.3,31.659 49.436,31.625 L49.436,33.121 C49.2206667,33.1436667 49.011,33.1663333 48.807,33.189 C48.603,33.2116667 48.3933333,33.223 48.178,33.223 C47.668,33.223 47.2571667,33.1748333 46.9455,33.0785 C46.6338333,32.9821667 46.3901667,32.8405 46.2145,32.6535 C46.0388333,32.4665 45.9198333,32.2313333 45.8575,31.948 C45.7951667,31.6646667 45.7583333,31.3416667 45.747,30.979 L45.747,25.794 L44.285,25.794 L44.285,24.349 Z" id="Path"></path>
                <path d="M50.881,21 L52.819,21 L52.819,22.836 L50.881,22.836 L50.881,21 Z M50.881,24.349 L52.819,24.349 L52.819,33.138 L50.881,33.138 L50.881,24.349 Z" id="Shape"></path>
                <path d="M60.86,27.29 C60.7806667,26.746 60.5625,26.3351667 60.2055,26.0575 C59.8485,25.7798333 59.398,25.641 58.854,25.641 C58.6046667,25.641 58.3383333,25.6835 58.055,25.7685 C57.7716667,25.8535 57.511,26.0121667 57.273,26.2445 C57.035,26.4768333 56.8366667,26.7998333 56.678,27.2135 C56.5193333,27.6271667 56.44,28.1683333 56.44,28.837 C56.44,29.1996667 56.4825,29.5623333 56.5675,29.925 C56.6525,30.2876667 56.7885,30.6106667 56.9755,30.894 C57.1625,31.1773333 57.4033333,31.4068333 57.698,31.5825 C57.9926667,31.7581667 58.3496667,31.846 58.769,31.846 C59.3356667,31.846 59.8031667,31.6703333 60.1715,31.319 C60.5398333,30.9676667 60.7693333,30.4746667 60.86,29.84 L62.798,29.84 C62.6166667,30.9846667 62.1831667,31.8601667 61.4975,32.4665 C60.8118333,33.0728333 59.9023333,33.376 58.769,33.376 C58.0776667,33.376 57.4685,33.2598333 56.9415,33.0275 C56.4145,32.7951667 55.9696667,32.4778333 55.607,32.0755 C55.2443333,31.6731667 54.9695,31.1943333 54.7825,30.639 C54.5955,30.0836667 54.502,29.483 54.502,28.837 C54.502,28.1796667 54.5926667,27.562 54.774,26.984 C54.9553333,26.406 55.2273333,25.9045 55.59,25.4795 C55.9526667,25.0545 56.4031667,24.7201667 56.9415,24.4765 C57.4798333,24.2328333 58.1116667,24.111 58.837,24.111 C59.347,24.111 59.8315,24.1761667 60.2905,24.3065 C60.7495,24.4368333 61.1575,24.6323333 61.5145,24.893 C61.8715,25.1536667 62.1633333,25.4823333 62.39,25.879 C62.6166667,26.2756667 62.7526667,26.746 62.798,27.29 L60.86,27.29 Z" id="Path"></path>
                <path d="M71.74,31.183 C71.74,31.421 71.7711667,31.591 71.8335,31.693 C71.8958333,31.795 72.0176667,31.846 72.199,31.846 C72.2556667,31.846 72.3236667,31.846 72.403,31.846 C72.4823333,31.846 72.573,31.8346667 72.675,31.812 L72.675,33.155 C72.607,33.1776667 72.5191667,33.2031667 72.4115,33.2315 C72.3038333,33.2598333 72.1933333,33.2853333 72.08,33.308 C71.9666667,33.3306667 71.8533333,33.3476667 71.74,33.359 C71.6266667,33.3703333 71.5303333,33.376 71.451,33.376 C71.0543333,33.376 70.7256667,33.2966667 70.465,33.138 C70.2043333,32.9793333 70.0343333,32.7016667 69.955,32.305 C69.5696667,32.679 69.0965,32.951 68.5355,33.121 C67.9745,33.291 67.4333333,33.376 66.912,33.376 C66.5153333,33.376 66.1356667,33.3221667 65.773,33.2145 C65.4103333,33.1068333 65.0901667,32.9481667 64.8125,32.7385 C64.5348333,32.5288333 64.3138333,32.2625 64.1495,31.9395 C63.9851667,31.6165 63.903,31.2396667 63.903,30.809 C63.903,30.265 64.0021667,29.823 64.2005,29.483 C64.3988333,29.143 64.6595,28.8766667 64.9825,28.684 C65.3055,28.4913333 65.6681667,28.3525 66.0705,28.2675 C66.4728333,28.1825 66.878,28.1173333 67.286,28.072 C67.6373333,28.004 67.9716667,27.9558333 68.289,27.9275 C68.6063333,27.8991667 68.8868333,27.851 69.1305,27.783 C69.3741667,27.715 69.5668333,27.6101667 69.7085,27.4685 C69.8501667,27.3268333 69.921,27.1143333 69.921,26.831 C69.921,26.5816667 69.8615,26.3776667 69.7425,26.219 C69.6235,26.0603333 69.4761667,25.9385 69.3005,25.8535 C69.1248333,25.7685 68.9293333,25.7118333 68.714,25.6835 C68.4986667,25.6551667 68.2946667,25.641 68.102,25.641 C67.558,25.641 67.1103333,25.7543333 66.759,25.981 C66.4076667,26.2076667 66.2093333,26.559 66.164,27.035 L64.226,27.035 C64.26,26.4683333 64.396,25.998 64.634,25.624 C64.872,25.25 65.1751667,24.9496667 65.5435,24.723 C65.9118333,24.4963333 66.3283333,24.3376667 66.793,24.247 C67.2576667,24.1563333 67.7336667,24.111 68.221,24.111 C68.6516667,24.111 69.0766667,24.1563333 69.496,24.247 C69.9153333,24.3376667 70.2921667,24.485 70.6265,24.689 C70.9608333,24.893 71.23,25.1565 71.434,25.4795 C71.638,25.8025 71.74,26.1963333 71.74,26.661 L71.74,31.183 Z M69.802,28.735 C69.5073333,28.9276667 69.1446667,29.0438333 68.714,29.0835 C68.2833333,29.1231667 67.8526667,29.1826667 67.422,29.262 C67.218,29.296 67.0196667,29.3441667 66.827,29.4065 C66.6343333,29.4688333 66.4643333,29.5538333 66.317,29.6615 C66.1696667,29.7691667 66.0535,29.9108333 65.9685,30.0865 C65.8835,30.2621667 65.841,30.4746667 65.841,30.724 C65.841,30.9393333 65.9033333,31.1206667 66.028,31.268 C66.1526667,31.4153333 66.3028333,31.5315 66.4785,31.6165 C66.6541667,31.7015 66.8468333,31.761 67.0565,31.795 C67.2661667,31.829 67.456,31.846 67.626,31.846 C67.8413333,31.846 68.0736667,31.8176667 68.323,31.761 C68.5723333,31.7043333 68.8075,31.608 69.0285,31.472 C69.2495,31.336 69.4336667,31.1631667 69.581,30.9535 C69.7283333,30.7438333 69.802,30.486 69.802,30.18 L69.802,28.735 Z" id="Shape"></path>
                <polygon id="Path" points="73.882 21 75.82 21 75.82 33.138 73.882 33.138"></polygon>
                <polygon id="Path" points="0.731 42 2.856 42 2.856 54.138 0.731 54.138"></polygon>
                <path d="M5.185,45.349 L7.021,45.349 L7.021,46.641 L7.055,46.675 C7.34966667,46.1876667 7.735,45.8051667 8.211,45.5275 C8.687,45.2498333 9.214,45.111 9.792,45.111 C10.7553333,45.111 11.5146667,45.3603333 12.07,45.859 C12.6253333,46.3576667 12.903,47.1056667 12.903,48.103 L12.903,54.138 L10.965,54.138 L10.965,48.613 C10.9423333,47.9216667 10.795,47.4201667 10.523,47.1085 C10.251,46.7968333 9.826,46.641 9.248,46.641 C8.91933333,46.641 8.62466667,46.7005 8.364,46.8195 C8.10333333,46.9385 7.88233333,47.1028333 7.701,47.3125 C7.51966667,47.5221667 7.378,47.7686667 7.276,48.052 C7.174,48.3353333 7.123,48.6356667 7.123,48.953 L7.123,54.138 L5.185,54.138 L5.185,45.349 Z" id="Path"></path>
                <path d="M16.405,51.316 C16.4616667,51.8826667 16.677,52.2793333 17.051,52.506 C17.425,52.7326667 17.8726667,52.846 18.394,52.846 C18.5753333,52.846 18.7821667,52.8318333 19.0145,52.8035 C19.2468333,52.7751667 19.465,52.7213333 19.669,52.642 C19.873,52.5626667 20.0401667,52.4465 20.1705,52.2935 C20.3008333,52.1405 20.3603333,51.9393333 20.349,51.69 C20.3376667,51.4406667 20.247,51.2366667 20.077,51.078 C19.907,50.9193333 19.6888333,50.7918333 19.4225,50.6955 C19.1561667,50.5991667 18.853,50.517 18.513,50.449 C18.173,50.381 17.8273333,50.3073333 17.476,50.228 C17.1133333,50.1486667 16.7648333,50.0523333 16.4305,49.939 C16.0961667,49.8256667 15.7958333,49.6726667 15.5295,49.48 C15.2631667,49.2873333 15.0506667,49.0408333 14.892,48.7405 C14.7333333,48.4401667 14.654,48.069 14.654,47.627 C14.654,47.151 14.7701667,46.7515 15.0025,46.4285 C15.2348333,46.1055 15.5295,45.8448333 15.8865,45.6465 C16.2435,45.4481667 16.6401667,45.3093333 17.0765,45.23 C17.5128333,45.1506667 17.9293333,45.111 18.326,45.111 C18.7793333,45.111 19.2128333,45.1591667 19.6265,45.2555 C20.0401667,45.3518333 20.4141667,45.5076667 20.7485,45.723 C21.0828333,45.9383333 21.3605,46.2188333 21.5815,46.5645 C21.8025,46.9101667 21.9413333,47.3266667 21.998,47.814 L19.975,47.814 C19.8843333,47.3493333 19.6718333,47.0376667 19.3375,46.879 C19.0031667,46.7203333 18.6206667,46.641 18.19,46.641 C18.054,46.641 17.8925,46.6523333 17.7055,46.675 C17.5185,46.6976667 17.3428333,46.7401667 17.1785,46.8025 C17.0141667,46.8648333 16.8753333,46.9555 16.762,47.0745 C16.6486667,47.1935 16.592,47.3493333 16.592,47.542 C16.592,47.78 16.6741667,47.9726667 16.8385,48.12 C17.0028333,48.2673333 17.2181667,48.3891667 17.4845,48.4855 C17.7508333,48.5818333 18.054,48.664 18.394,48.732 C18.734,48.8 19.0853333,48.8736667 19.448,48.953 C19.7993333,49.0323333 20.145,49.1286667 20.485,49.242 C20.825,49.3553333 21.1281667,49.5083333 21.3945,49.701 C21.6608333,49.8936667 21.8761667,50.1373333 22.0405,50.432 C22.2048333,50.7266667 22.287,51.0893333 22.287,51.52 C22.287,52.0413333 22.168,52.4833333 21.93,52.846 C21.692,53.2086667 21.3831667,53.5033333 21.0035,53.73 C20.6238333,53.9566667 20.2016667,54.121 19.737,54.223 C19.2723333,54.325 18.8133333,54.376 18.36,54.376 C17.8046667,54.376 17.2918333,54.3136667 16.8215,54.189 C16.3511667,54.0643333 15.9431667,53.8745 15.5975,53.6195 C15.2518333,53.3645 14.9798333,53.0471667 14.7815,52.6675 C14.5831667,52.2878333 14.4783333,51.8373333 14.467,51.316 L16.405,51.316 Z" id="Path"></path>
                <path d="M22.882,45.349 L24.344,45.349 L24.344,42.714 L26.282,42.714 L26.282,45.349 L28.033,45.349 L28.033,46.794 L26.282,46.794 L26.282,51.486 C26.282,51.69 26.2905,51.8656667 26.3075,52.013 C26.3245,52.1603333 26.3641667,52.285 26.4265,52.387 C26.4888333,52.489 26.5823333,52.5655 26.707,52.6165 C26.8316667,52.6675 27.0016667,52.693 27.217,52.693 C27.353,52.693 27.489,52.6901667 27.625,52.6845 C27.761,52.6788333 27.897,52.659 28.033,52.625 L28.033,54.121 C27.8176667,54.1436667 27.608,54.1663333 27.404,54.189 C27.2,54.2116667 26.9903333,54.223 26.775,54.223 C26.265,54.223 25.8541667,54.1748333 25.5425,54.0785 C25.2308333,53.9821667 24.9871667,53.8405 24.8115,53.6535 C24.6358333,53.4665 24.5168333,53.2313333 24.4545,52.948 C24.3921667,52.6646667 24.3553333,52.3416667 24.344,51.979 L24.344,46.794 L22.882,46.794 L22.882,45.349 Z" id="Path"></path>
                <path d="M29.478,42 L31.416,42 L31.416,43.836 L29.478,43.836 L29.478,42 Z M29.478,45.349 L31.416,45.349 L31.416,54.138 L29.478,54.138 L29.478,45.349 Z" id="Shape"></path>
                <path d="M32.64,45.349 L34.102,45.349 L34.102,42.714 L36.04,42.714 L36.04,45.349 L37.791,45.349 L37.791,46.794 L36.04,46.794 L36.04,51.486 C36.04,51.69 36.0485,51.8656667 36.0655,52.013 C36.0825,52.1603333 36.1221667,52.285 36.1845,52.387 C36.2468333,52.489 36.3403333,52.5655 36.465,52.6165 C36.5896667,52.6675 36.7596667,52.693 36.975,52.693 C37.111,52.693 37.247,52.6901667 37.383,52.6845 C37.519,52.6788333 37.655,52.659 37.791,52.625 L37.791,54.121 C37.5756667,54.1436667 37.366,54.1663333 37.162,54.189 C36.958,54.2116667 36.7483333,54.223 36.533,54.223 C36.023,54.223 35.6121667,54.1748333 35.3005,54.0785 C34.9888333,53.9821667 34.7451667,53.8405 34.5695,53.6535 C34.3938333,53.4665 34.2748333,53.2313333 34.2125,52.948 C34.1501667,52.6646667 34.1133333,52.3416667 34.102,51.979 L34.102,46.794 L32.64,46.794 L32.64,45.349 Z" id="Path"></path>
                <path d="M46.903,54.138 L44.999,54.138 L44.999,52.914 L44.965,52.914 C44.727,53.356 44.3728333,53.7101667 43.9025,53.9765 C43.4321667,54.2428333 42.9533333,54.376 42.466,54.376 C41.31,54.376 40.4741667,54.0898333 39.9585,53.5175 C39.4428333,52.9451667 39.185,52.081 39.185,50.925 L39.185,45.349 L41.123,45.349 L41.123,50.738 C41.123,51.5086667 41.2703333,52.0526667 41.565,52.37 C41.8596667,52.6873333 42.2733333,52.846 42.806,52.846 C43.214,52.846 43.554,52.7836667 43.826,52.659 C44.098,52.5343333 44.319,52.3671667 44.489,52.1575 C44.659,51.9478333 44.7808333,51.6956667 44.8545,51.401 C44.9281667,51.1063333 44.965,50.789 44.965,50.449 L44.965,45.349 L46.903,45.349 L46.903,54.138 Z" id="Path"></path>
                <path d="M48.059,45.349 L49.521,45.349 L49.521,42.714 L51.459,42.714 L51.459,45.349 L53.21,45.349 L53.21,46.794 L51.459,46.794 L51.459,51.486 C51.459,51.69 51.4675,51.8656667 51.4845,52.013 C51.5015,52.1603333 51.5411667,52.285 51.6035,52.387 C51.6658333,52.489 51.7593333,52.5655 51.884,52.6165 C52.0086667,52.6675 52.1786667,52.693 52.394,52.693 C52.53,52.693 52.666,52.6901667 52.802,52.6845 C52.938,52.6788333 53.074,52.659 53.21,52.625 L53.21,54.121 C52.9946667,54.1436667 52.785,54.1663333 52.581,54.189 C52.377,54.2116667 52.1673333,54.223 51.952,54.223 C51.442,54.223 51.0311667,54.1748333 50.7195,54.0785 C50.4078333,53.9821667 50.1641667,53.8405 49.9885,53.6535 C49.8128333,53.4665 49.6938333,53.2313333 49.6315,52.948 C49.5691667,52.6646667 49.5323333,52.3416667 49.521,51.979 L49.521,46.794 L48.059,46.794 L48.059,45.349 Z" id="Path"></path>
                <path d="M60.639,48.97 C60.6163333,48.664 60.5511667,48.3693333 60.4435,48.086 C60.3358333,47.8026667 60.1885,47.5561667 60.0015,47.3465 C59.8145,47.1368333 59.5878333,46.9668333 59.3215,46.8365 C59.0551667,46.7061667 58.7576667,46.641 58.429,46.641 C58.089,46.641 57.7801667,46.7005 57.5025,46.8195 C57.2248333,46.9385 56.9868333,47.1028333 56.7885,47.3125 C56.5901667,47.5221667 56.4315,47.7686667 56.3125,48.052 C56.1935,48.3353333 56.1283333,48.6413333 56.117,48.97 L60.639,48.97 Z M56.117,50.245 C56.117,50.585 56.1651667,50.9136667 56.2615,51.231 C56.3578333,51.5483333 56.5023333,51.826 56.695,52.064 C56.8876667,52.302 57.1313333,52.4918333 57.426,52.6335 C57.7206667,52.7751667 58.072,52.846 58.48,52.846 C59.0466667,52.846 59.5028333,52.7241667 59.8485,52.4805 C60.1941667,52.2368333 60.452,51.8713333 60.622,51.384 L62.458,51.384 C62.356,51.86 62.1803333,52.285 61.931,52.659 C61.6816667,53.033 61.3813333,53.3475 61.03,53.6025 C60.6786667,53.8575 60.2848333,54.0501667 59.8485,54.1805 C59.4121667,54.3108333 58.956,54.376 58.48,54.376 C57.7886667,54.376 57.1766667,54.2626667 56.644,54.036 C56.1113333,53.8093333 55.6608333,53.492 55.2925,53.084 C54.9241667,52.676 54.6465,52.1886667 54.4595,51.622 C54.2725,51.0553333 54.179,50.432 54.179,49.752 C54.179,49.1286667 54.2781667,48.5365 54.4765,47.9755 C54.6748333,47.4145 54.9581667,46.9215 55.3265,46.4965 C55.6948333,46.0715 56.1396667,45.7343333 56.661,45.485 C57.1823333,45.2356667 57.7716667,45.111 58.429,45.111 C59.1203333,45.111 59.7408333,45.2555 60.2905,45.5445 C60.8401667,45.8335 61.2963333,46.216 61.659,46.692 C62.0216667,47.168 62.2851667,47.7148333 62.4495,48.3325 C62.6138333,48.9501667 62.6563333,49.5876667 62.577,50.245 L56.117,50.245 Z" id="Shape"></path>
            </g>
        </g>
    </g>
</svg>